G75*
%MOIN*%
%OFA0B0*%
%FSLAX24Y24*%
%IPPOS*%
%LPD*%
%AMOC8*
5,1,8,0,0,1.08239X$1,22.5*
%
%ADD10OC8,0.0554*%
%ADD11C,0.0740*%
%ADD12C,0.0560*%
%ADD13C,0.0100*%
%ADD14C,0.0436*%
%ADD15C,0.0360*%
%ADD16C,0.0500*%
D10*
X001100Y004700D03*
X002100Y004700D03*
X003100Y004700D03*
X004100Y004700D03*
X005100Y004700D03*
X006100Y004700D03*
X007100Y004700D03*
X008100Y004700D03*
X009100Y004700D03*
X010100Y004700D03*
X011100Y004700D03*
X012100Y004700D03*
X013100Y004700D03*
X014100Y004700D03*
X015100Y004700D03*
X016100Y004700D03*
X017100Y004700D03*
X018100Y004700D03*
X019100Y004700D03*
X020100Y004700D03*
X021100Y004700D03*
X017600Y028300D03*
X016600Y028300D03*
X015600Y028300D03*
X014600Y028300D03*
X013600Y028300D03*
X012600Y028300D03*
X011600Y028300D03*
X010600Y028300D03*
X009600Y028300D03*
X008600Y028300D03*
X007600Y028300D03*
X006600Y028300D03*
X005600Y028300D03*
X004600Y028300D03*
D11*
X005000Y026000D03*
X006000Y026000D03*
X007000Y026000D03*
X009000Y026000D03*
X010000Y026000D03*
X011000Y026000D03*
X012000Y026000D03*
X013000Y026000D03*
X014000Y026000D03*
X015000Y026000D03*
X016000Y026000D03*
X004000Y026000D03*
X003000Y026000D03*
X002000Y026000D03*
X002000Y007000D03*
X003000Y007000D03*
X004000Y007000D03*
X005000Y007000D03*
X006000Y007000D03*
X007000Y007000D03*
X008000Y007000D03*
X009000Y007000D03*
X010500Y007000D03*
X011500Y007000D03*
X012500Y007000D03*
X013500Y007000D03*
X014500Y007000D03*
X015500Y007000D03*
X016500Y007000D03*
X017500Y007000D03*
X018500Y007000D03*
X019500Y007000D03*
D12*
X016500Y006000D03*
X015500Y006000D03*
X014500Y006000D03*
X013500Y006000D03*
X012500Y006000D03*
X011500Y006000D03*
X010500Y006000D03*
X009000Y006000D03*
X008000Y006000D03*
X007000Y006000D03*
X006000Y006000D03*
X005000Y006000D03*
X004000Y006000D03*
X016500Y008000D03*
X013000Y025000D03*
X013000Y025000D03*
X012000Y025000D03*
X011000Y025000D03*
X011000Y027000D03*
X012000Y027000D03*
X013000Y027000D03*
X010000Y027000D03*
D13*
X009000Y027000D01*
X008600Y027400D01*
X008600Y028300D01*
X011000Y027000D02*
X011600Y027600D01*
X011600Y028300D01*
X011600Y029000D01*
X014600Y029000D01*
X014600Y028300D01*
X014600Y029000D02*
X016600Y029000D01*
X016600Y028300D01*
X015600Y028300D02*
X015600Y027600D01*
X015500Y027500D01*
X012500Y027500D01*
X012000Y027000D01*
X013000Y027000D02*
X017000Y027000D01*
X017600Y027600D01*
X017600Y028300D01*
X013000Y025000D02*
X012500Y024500D01*
X012500Y010000D01*
X013500Y009000D01*
X020500Y009000D01*
X021100Y008400D01*
X021100Y004700D01*
X020100Y004700D02*
X020100Y004100D01*
X020000Y004000D01*
X018500Y004000D01*
X018100Y004400D01*
X018100Y004700D01*
X018100Y005400D01*
X018000Y005500D01*
X017000Y005500D01*
X016500Y006000D01*
X015500Y006000D02*
X015500Y005500D01*
X015100Y005100D01*
X015100Y004700D01*
X014500Y005500D02*
X014500Y006000D01*
X014500Y005500D02*
X014100Y005100D01*
X014100Y004700D01*
X013500Y005500D02*
X013500Y006000D01*
X013500Y005500D02*
X013100Y005100D01*
X013100Y004700D01*
X012500Y005500D02*
X012500Y006000D01*
X012500Y005500D02*
X012100Y005100D01*
X012100Y004700D01*
X011500Y005500D02*
X011500Y006000D01*
X011500Y005500D02*
X011100Y005100D01*
X011100Y004700D01*
X010500Y005500D02*
X010500Y006000D01*
X010500Y005500D02*
X010100Y005100D01*
X010100Y004700D01*
X009100Y004700D02*
X009100Y005400D01*
X009000Y005500D01*
X009000Y006000D01*
X008000Y006000D02*
X008000Y005500D01*
X008100Y005400D01*
X008100Y004700D01*
X007100Y004700D02*
X007100Y005400D01*
X007000Y005500D01*
X007000Y006000D01*
X006000Y006000D02*
X006000Y005500D01*
X006100Y005400D01*
X006100Y004700D01*
X005100Y004700D02*
X005100Y005400D01*
X005000Y005500D01*
X005000Y006000D01*
X004100Y005400D02*
X004000Y005500D01*
X004000Y006000D01*
X004100Y005400D02*
X004100Y004700D01*
X001100Y004700D02*
X001100Y007600D01*
X001500Y008000D01*
X011000Y008000D01*
X011000Y025000D01*
X012000Y025000D02*
X012000Y009500D01*
X013000Y008500D01*
X020000Y008500D01*
X020500Y008000D01*
X020500Y006500D01*
X020000Y006000D01*
X019500Y006000D01*
X019100Y005600D01*
X019100Y004700D01*
X016500Y008000D02*
X011000Y008000D01*
D14*
X011000Y025000D03*
D15*
X013000Y027000D03*
D16*
X012000Y025000D03*
M02*
