%
M48
M72
T20C0.0200
T28C0.0280
T35C0.0350
T40C0.0400
%
T20
X13000Y27000
T28
X13000Y27000
X12000Y27000
X11000Y27000
X10000Y27000
X11000Y25000
X11000Y25000
X12000Y25000
X12000Y25000
X13000Y25000
X13000Y25000
X16500Y8000
X16500Y6000
X15500Y6000
X14500Y6000
X13500Y6000
X12500Y6000
X11500Y6000
X10500Y6000
X9000Y6000
X8000Y6000
X7000Y6000
X6000Y6000
X5000Y6000
X4000Y6000
T35
X1100Y4700
X2100Y4700
X3100Y4700
X4100Y4700
X5100Y4700
X6100Y4700
X7100Y4700
X8100Y4700
X9100Y4700
X10100Y4700
X11100Y4700
X12100Y4700
X13100Y4700
X14100Y4700
X15100Y4700
X16100Y4700
X17100Y4700
X18100Y4700
X19100Y4700
X20100Y4700
X21100Y4700
X17600Y28300
X16600Y28300
X15600Y28300
X14600Y28300
X13600Y28300
X12600Y28300
X11600Y28300
X10600Y28300
X9600Y28300
X8600Y28300
X7600Y28300
X6600Y28300
X5600Y28300
X4600Y28300
T40
X5000Y26000
X6000Y26000
X7000Y26000
X9000Y26000
X10000Y26000
X11000Y26000
X12000Y26000
X13000Y26000
X14000Y26000
X15000Y26000
X16000Y26000
X4000Y26000
X3000Y26000
X2000Y26000
X2000Y7000
X3000Y7000
X4000Y7000
X5000Y7000
X6000Y7000
X7000Y7000
X8000Y7000
X9000Y7000
X10500Y7000
X11500Y7000
X12500Y7000
X13500Y7000
X14500Y7000
X15500Y7000
X16500Y7000
X17500Y7000
X18500Y7000
X19500Y7000
M30
